<svg width="76" height="64" viewBox="0 0 76 64" fill="none" xmlns="http://www.w3.org/2000/svg">
<path d="M24.2322 36.8262C32.0347 36.8262 37.9208 30.9401 37.9208 23.1376C37.9208 15.3351 32.0347 9.44903 24.2322 9.44903C16.4297 9.44903 10.5436 15.3351 10.5436 23.1376C10.5436 30.9401 16.4297 36.8262 24.2322 36.8262ZM28.1432 40.5339H20.3211C9.53845 40.5339 0.766022 49.3063 0.766022 60.089V64H47.6983V60.089C47.6983 49.3063 38.9259 40.5339 28.1432 40.5339ZM64.766 0L59.2358 5.53019C64.4023 10.7045 67.2534 17.5801 67.2534 24.8898C67.2534 32.1995 64.4023 39.075 59.2358 44.2493L64.766 49.7795C71.4148 43.1269 75.0755 34.2879 75.0755 24.8898C75.0755 15.4916 71.4148 6.65265 64.766 0V0Z" fill="#084887"/>
<path d="M53.7017 11.0604L48.1715 16.5984C50.3891 18.8081 51.6093 21.7531 51.6093 24.8897C51.6093 28.0264 50.3891 30.9714 48.1715 33.1811L53.7017 38.7191C57.3937 35.0271 59.4313 30.1188 59.4313 24.8897C59.4313 19.6607 57.3937 14.7524 53.7017 11.0604Z" fill="#084887"/>
</svg>
