<svg width="65" height="64" viewBox="0 0 65 64" fill="none" xmlns="http://www.w3.org/2000/svg">
<path d="M32.766 0C15.0946 0 0.766022 14.3286 0.766022 32C0.766022 49.6714 15.0946 64 32.766 64C50.4375 64 64.766 49.6714 64.766 32C64.766 14.3286 50.4375 0 32.766 0ZM43.0589 32.4929L27.4589 43.8429C27.3734 43.9043 27.2725 43.941 27.1675 43.9489C27.0625 43.9568 26.9573 43.9356 26.8636 43.8876C26.7698 43.8396 26.6911 43.7667 26.6361 43.6769C26.5811 43.5871 26.5519 43.4839 26.5517 43.3786V20.6929C26.5514 20.5873 26.5803 20.4838 26.6352 20.3937C26.6901 20.3035 26.7689 20.2304 26.8628 20.1823C26.9568 20.1342 27.0622 20.1131 27.1674 20.1213C27.2726 20.1294 27.3735 20.1666 27.4589 20.2286L43.0589 31.5714C43.1326 31.6236 43.1927 31.6926 43.2342 31.7728C43.2757 31.8529 43.2973 31.9419 43.2973 32.0321C43.2973 32.1224 43.2757 32.2114 43.2342 32.2915C43.1927 32.3717 43.1326 32.4407 43.0589 32.4929V32.4929Z" fill="#084887"/>
</svg>
