<svg width="91" height="64" viewBox="0 0 91 64" fill="none" xmlns="http://www.w3.org/2000/svg">
<g clip-path="url(#clip0_110_49)">
<path d="M45.283 63.4091C44.6744 63.4091 43.2593 62.2955 41.0377 60.0682C38.8162 57.8409 37.7054 56.4242 37.7054 55.8182C37.7054 54.8485 38.6564 54.0303 40.5584 53.3636C42.4604 52.697 44.0353 52.3636 45.283 52.3636C46.5307 52.3636 48.1056 52.697 50.0076 53.3636C51.9096 54.0303 52.8606 54.8485 52.8606 55.8182C52.8606 56.4242 51.7499 57.8409 49.5283 60.0682C47.3068 62.2955 45.8917 63.4091 45.283 63.4091ZM57.608 51.0909C57.5472 51.0909 56.9385 50.7121 55.7821 49.9545C54.6257 49.197 53.0813 48.4394 51.1488 47.6818C49.2164 46.9242 47.2611 46.5455 45.283 46.5455C43.3049 46.5455 41.3497 46.9242 39.4172 47.6818C37.4848 48.4394 35.948 49.197 34.8068 49.9545C33.6656 50.7121 33.0493 51.0909 32.958 51.0909C32.4102 51.0909 30.9875 49.9545 28.6899 47.6818C26.3923 45.4091 25.2435 44 25.2435 43.4545C25.2435 43.0606 25.3956 42.7121 25.6999 42.4091C28.0736 40.0758 31.056 38.2424 34.647 36.9091C38.238 35.5758 41.7833 34.9091 45.283 34.9091C48.7827 34.9091 52.3281 35.5758 55.9191 36.9091C59.51 38.2424 62.4924 40.0758 64.8661 42.4091C65.1704 42.7121 65.3226 43.0606 65.3226 43.4545C65.3226 44 64.1738 45.4091 61.8761 47.6818C59.5785 49.9545 58.1558 51.0909 57.608 51.0909ZM70.07 38.7273C69.7352 38.7273 69.3853 38.6061 69.0201 38.3636C64.8813 35.1818 61.0469 32.8409 57.5167 31.3409C53.9866 29.8409 49.9087 29.0909 45.283 29.0909C42.6963 29.0909 40.102 29.4242 37.5 30.0909C34.8981 30.7576 32.6309 31.5606 30.6984 32.5C28.766 33.4394 27.039 34.3788 25.5173 35.3182C23.9957 36.2576 22.7937 37.0606 21.9111 37.7273C21.0286 38.3939 20.5569 38.7273 20.496 38.7273C19.9787 38.7273 18.5788 37.5909 16.2964 35.3182C14.014 33.0455 12.8728 31.6364 12.8728 31.0909C12.8728 30.7273 13.025 30.3939 13.3293 30.0909C17.3463 26.0909 22.2155 22.9848 27.9367 20.7727C33.6579 18.5606 39.4401 17.4545 45.283 17.4545C51.126 17.4545 56.9081 18.5606 62.6293 20.7727C68.3506 22.9848 73.2197 26.0909 77.2368 30.0909C77.5411 30.3939 77.6933 30.7273 77.6933 31.0909C77.6933 31.6364 76.552 33.0455 74.2696 35.3182C71.9872 37.5909 70.5873 38.7273 70.07 38.7273ZM82.4407 26.4091C82.1059 26.4091 81.7712 26.2727 81.4364 26C75.9891 21.2424 70.3363 17.6591 64.4781 15.25C58.6199 12.8409 52.2216 11.6364 45.283 11.6364C38.3445 11.6364 31.9461 12.8409 26.088 15.25C20.2298 17.6591 14.577 21.2424 9.12964 26C8.79489 26.2727 8.46013 26.4091 8.12538 26.4091C7.60803 26.4091 6.20055 25.2727 3.90292 23C1.6053 20.7273 0.456482 19.3182 0.456482 18.7727C0.456482 18.3788 0.608643 18.0303 0.912964 17.7273C6.60377 12.0909 13.3749 7.72727 21.2264 4.63636C29.0779 1.54545 37.0968 0 45.283 0C53.4693 0 61.4881 1.54545 69.3396 4.63636C77.1911 7.72727 83.9623 12.0909 89.6531 17.7273C89.9574 18.0303 90.1096 18.3788 90.1096 18.7727C90.1096 19.3182 88.9608 20.7273 86.6631 23C84.3655 25.2727 82.958 26.4091 82.4407 26.4091Z" fill="#084887"/>
</g>
<defs>
<clipPath id="clip0_110_49">
<rect width="90.566" height="64" fill="white"/>
</clipPath>
</defs>
</svg>
